<?xml version="1.0" encoding="UTF-8"?>
<svg version="1.1" xmlns="http://www.w3.org/2000/svg" width="1080" height="1080">
<path d="M0 0 C0.50321777 0.42780762 1.00643555 0.85561523 1.52490234 1.29638672 C40.38340348 34.63282715 51.27473258 87.91895228 55.21386719 136.64550781 C55.62335677 142.09453591 55.86493263 147.53765037 56 153 C56.02191406 153.82193848 56.04382812 154.64387695 56.06640625 155.49072266 C57.46025159 217.13353267 46.69752841 279.69703246 27 338 C26.63406738 339.08555176 26.26813477 340.17110352 25.89111328 341.28955078 C20.69429806 356.54042528 14.69014656 371.34671365 8 386 C7.57493164 386.94053223 7.14986328 387.88106445 6.71191406 388.85009766 C-2.17502374 408.41272862 -12.50290773 427.48439036 -25 445 C-25.41314453 445.58007812 -25.82628906 446.16015625 -26.25195312 446.7578125 C-34.09904549 457.73245103 -42.35411764 468.28232466 -51.4765625 478.23632812 C-53.12508416 480.04179109 -54.76152367 481.85838106 -56.3840332 483.68725586 C-62.47702247 490.46189238 -68.8725785 496.75515319 -75.5546875 502.94921875 C-78.12395751 505.37105074 -80.68820332 507.7980749 -83.25048828 510.22729492 C-85.00912265 511.8758306 -86.78419558 513.50699289 -88.57470703 515.12084961 C-91.19995557 517.49610866 -93.75408662 519.93177286 -96.3046875 522.38671875 C-97.10856903 523.08423752 -97.91245056 523.78175629 -98.74069214 524.50041199 C-101.20415754 526.9477149 -102.57127163 528.82257188 -104 532 C-103.97751921 534.80329942 -103.79511666 537.2236838 -103.38397217 539.96806335 C-103.28126845 540.75285989 -103.17856473 541.53765643 -103.07274878 542.34623468 C-102.73341994 544.9003462 -102.36756076 547.44981217 -102 550 C-101.76818782 551.69432482 -101.53761609 553.38881981 -101.30826759 555.08347988 C-100.54339448 560.6720082 -99.73586013 566.25408809 -98.92724609 571.83642578 C-98.62127418 573.96396684 -98.31557227 576.09154675 -98.01011658 578.21916199 C-97.35746827 582.76171347 -96.70312646 587.30401646 -96.04746628 591.84613419 C-95.01033247 599.03231045 -93.97821146 606.21920134 -92.94692993 613.40621948 C-90.01560603 633.82930339 -87.07753577 654.25141394 -84.13476562 674.67285156 C-82.5052771 685.98104586 -80.87982246 697.2898128 -79.25868094 708.59920681 C-78.23465794 715.74124556 -77.20559944 722.88253473 -76.17277122 730.02330518 C-75.53223186 734.46013001 -74.89638498 738.89761788 -74.26185799 743.33530617 C-73.96712331 745.38986888 -73.67046328 747.44415648 -73.37172127 749.49814034 C-72.96375572 752.30501941 -72.56275254 755.11281036 -72.16342163 757.92092896 C-72.04416647 758.72968385 -71.92491132 759.53843874 -71.80204237 760.37170136 C-70.11613274 772.38566484 -70.94830198 782.82833825 -78 793 C-85.71873369 802.00666995 -94.19591061 810.35010461 -102.57446289 818.7355957 C-103.89993156 820.06570633 -105.22520765 821.39600887 -106.55030823 822.72648621 C-110.11384125 826.30300053 -113.68058141 829.8762984 -117.24837422 833.44856286 C-119.48303156 835.68617026 -121.71710873 837.92435536 -123.95101738 840.16271019 C-130.95823118 847.18355251 -137.9674099 854.20242418 -144.97950083 861.21839553 C-153.04350662 869.2868905 -161.10091116 877.36190236 -169.15269667 885.44259197 C-175.40248337 891.71402729 -181.65805426 897.97965471 -187.91800684 904.24094266 C-191.64639283 907.97037308 -195.37234496 911.70215755 -199.0922718 915.44002724 C-202.58809435 918.95238879 -206.09108224 922.45744558 -209.59955406 925.95717049 C-210.87997442 927.23682398 -212.15786892 928.51901104 -213.43292999 929.80400467 C-224.68865178 941.1422013 -234.70733441 951.16238012 -251.4375 951.4375 C-258.06086471 951.39265134 -263.3550565 950.7210546 -269 947 C-269.69351563 946.55269531 -270.38703125 946.10539062 -271.1015625 945.64453125 C-279.713576 939.62902369 -284.61038104 931.67049643 -289.74407959 922.68222046 C-291.60396209 919.42745265 -293.48895008 916.18724094 -295.37109375 912.9453125 C-295.75682556 912.27962753 -296.14255737 911.61394257 -296.53997803 910.92808533 C-300.39349905 904.29128097 -304.3730467 897.73576605 -308.375 891.1875 C-314.49180806 881.16875275 -320.52207579 871.10221325 -326.5 861 C-332.90768177 850.17246966 -339.38131346 839.38869825 -345.9291687 828.64538574 C-352.72535946 817.49215172 -359.39166372 806.2653636 -366 795 C-371.04900821 799.21824597 -375.73512016 803.63701592 -380.33203125 808.33984375 C-381.7217077 809.74703865 -383.11169129 811.15393031 -384.50195312 812.56054688 C-386.65747803 814.74693147 -388.81057985 816.93553834 -390.95825195 819.12963867 C-414.50348052 843.15532702 -414.50348052 843.15532702 -431.4375 843.4375 C-438.04345298 843.40548752 -443.34673744 842.65600213 -449 839 C-449.92719125 838.41196972 -450.8543825 837.82393944 -451.80967045 837.21809006 C-454.87543925 835.08660139 -457.36725729 832.88171864 -460.00230408 830.24493408 C-460.46801663 829.78163594 -460.93372919 829.3183378 -461.41355425 828.84100032 C-462.95878017 827.30136925 -464.49680861 825.7547517 -466.03491211 824.20800781 C-467.14715643 823.09683746 -468.25983382 821.98610046 -469.37290955 820.87576294 C-472.38578278 817.86772423 -475.3923886 814.85349259 -478.3977592 811.83796024 C-481.5515517 808.6753575 -484.71064215 805.51805486 -487.86903381 802.36004639 C-493.17416255 797.0539819 -498.47541002 791.74406479 -503.77416992 786.43164062 C-509.8863097 780.30379659 -516.00363868 774.18117315 -522.1240024 768.0615437 C-528.65577303 761.53045069 -535.18372115 754.99554714 -541.71056676 748.45953274 C-543.58350477 746.58447117 -545.4571453 744.71011407 -547.33094597 742.83591461 C-550.28573928 739.88011037 -553.23794639 736.92174588 -556.18824196 733.96145248 C-557.26647737 732.88031719 -558.3455364 731.80000252 -559.42551422 730.72060776 C-564.61292301 725.53493863 -569.70413593 720.31671646 -574.48052502 714.74560356 C-576.7815364 712.10215519 -579.23408761 709.62597327 -581.71655273 707.15405273 C-582.50348007 706.36449692 -582.50348007 706.36449692 -583.30630493 705.55899048 C-585.01292354 703.84802961 -586.7231039 702.14068375 -588.43359375 700.43359375 C-589.63768327 699.228829 -590.84162444 698.02391598 -592.04542542 696.81886292 C-594.55771625 694.30510542 -597.0717869 691.79314563 -599.5871582 689.2824707 C-602.79232496 686.08300058 -605.99298016 682.87906082 -609.19230556 679.67375088 C-611.6742143 677.18820855 -614.15852464 674.70507758 -616.64354134 672.2226429 C-617.82388515 671.04296062 -619.003502 669.86255046 -620.18234062 668.68136406 C-621.83715317 667.02397867 -623.49519495 665.36988808 -625.15405273 663.71655273 C-625.86584938 663.00171974 -625.86584938 663.00171974 -626.59202576 662.27244568 C-629.20860369 659.6717809 -631.89876739 657.20425781 -634.69782066 654.80049706 C-638.9077879 651.12744739 -642.8868321 647.26418205 -646.83781433 643.31608582 C-647.95758548 642.20288805 -647.95758548 642.20288805 -649.09997827 641.06720144 C-651.58096898 638.59948095 -654.05845056 636.12826908 -656.53588867 633.65698242 C-658.32186198 631.87891889 -660.10801475 630.1010356 -661.89433289 628.32331848 C-667.2350592 623.00644203 -672.57149639 617.68527739 -677.90677568 612.36293575 C-679.41539573 610.85803542 -680.92414194 609.3532617 -682.43293214 607.84853196 C-691.82046003 598.48622857 -701.20639249 589.12232888 -710.58755016 579.75364208 C-712.7542293 577.58989212 -714.92092473 575.42615846 -717.08764648 573.26245117 C-717.62610281 572.7247409 -718.16455913 572.18703062 -718.71933232 571.6330261 C-727.44995671 562.91506645 -736.19082231 554.20744962 -744.93590435 545.50399514 C-753.93027283 536.55208873 -762.91514919 527.59074225 -771.89092237 518.62019044 C-776.92440754 513.59011251 -781.96194732 508.56424862 -787.01021385 503.54900169 C-791.75683232 498.83338188 -796.49048582 494.10512327 -801.21574593 489.36808586 C-802.94922111 487.63438997 -804.68696448 485.90494935 -806.42931366 484.18017197 C-808.81236551 481.81984763 -811.1793759 479.44448659 -813.5431366 477.06486511 C-814.57533373 476.05349111 -814.57533373 476.05349111 -815.62838334 475.0216853 C-824.05082475 466.45989865 -827.32150828 457.46825879 -827.31030273 445.61279297 C-826.9288756 425.8744598 -808.97074878 412.70694396 -795.9375 399.8125 C-794.29185074 398.17690199 -792.64666459 396.54083789 -791.00195312 394.90429688 C-787.00662503 390.9308089 -783.00562006 386.96311117 -779 383 C-782.45516509 380.11786355 -785.95238033 377.73575887 -789.84765625 375.48828125 C-790.40757263 375.16318069 -790.96748901 374.83808014 -791.54437256 374.50312805 C-792.75094097 373.80272834 -793.95848188 373.10400173 -795.16690063 372.40679932 C-798.44521967 370.51427796 -801.71496493 368.60707813 -804.984375 366.69921875 C-805.65624344 366.30730347 -806.32811188 365.91538818 -807.02033997 365.51159668 C-813.66542234 361.62668855 -820.24315305 357.63653002 -826.8125 353.625 C-836.83181157 347.50909452 -846.89788014 341.47811916 -857 335.5 C-868.45282273 328.72122903 -879.86573647 321.88163913 -891.22167969 314.94165039 C-896.42376773 311.76548413 -901.63410979 308.61345626 -906.90625 305.5546875 C-907.81536133 305.02351318 -908.72447266 304.49233887 -909.66113281 303.94506836 C-911.30548371 302.98751774 -912.95532136 302.03928063 -914.61230469 301.10375977 C-921.82126692 296.89005939 -928.4562236 291.45533025 -931.9375 283.6875 C-932.31777344 282.86636719 -932.69804688 282.04523438 -933.08984375 281.19921875 C-936.3900731 273.22484483 -936.47884312 261.83052905 -933.5625 253.625 C-927.69098902 242.08799839 -917.23734005 232.94360942 -908.17773438 223.90307617 C-906.80146086 222.52244624 -905.42560284 221.14140201 -904.05012512 219.75997925 C-900.3420971 216.03865551 -896.62778877 212.32366323 -892.91183662 208.61025405 C-889.80111376 205.50060651 -886.69338504 202.38797495 -883.58558989 199.27540189 C-876.25291559 191.93166681 -868.91496871 184.59322992 -861.57373047 177.25805664 C-854.01516538 169.70554018 -846.46584624 162.14387067 -838.92094755 154.57770365 C-832.42418937 148.06331012 -825.92161791 141.55475939 -819.41441011 135.05080396 C-815.5359399 131.17414234 -811.6597024 127.29531441 -807.78910828 123.41078758 C-804.15139685 119.76046961 -800.50645499 116.11752694 -796.85593224 112.48002243 C-795.52189085 111.14833951 -794.19037407 109.81412168 -792.8616581 108.47712517 C-782.03718256 97.59009471 -771.64896695 87.34663696 -755.41472149 86.9017477 C-750.64137168 86.92533277 -746.01723542 87.5616038 -741.30195618 88.25953674 C-740.35534801 88.39499954 -739.40873985 88.53046233 -738.43344659 88.67003006 C-735.27686163 89.12309438 -732.12149705 89.58414979 -728.96606445 90.04516602 C-726.69723696 90.37241448 -724.42833439 90.69914279 -722.15936279 91.02539062 C-717.28135696 91.72779024 -712.40386299 92.43361223 -707.52672768 93.14203072 C-699.81752923 94.26153772 -692.1070283 95.37188098 -684.39628601 96.48069763 C-673.58952523 98.03550831 -662.78316135 99.59303808 -651.97729492 101.15405273 C-651.29229847 101.25300533 -650.60730203 101.35195793 -649.90154811 101.45390909 C-642.25417643 102.55871092 -634.60693646 103.66442076 -626.95983887 104.77111816 C-624.18375811 105.17286263 -621.40767604 105.57459797 -618.6315918 105.97631836 C-617.94652462 106.07545462 -617.26145745 106.17459087 -616.55563066 106.27673126 C-605.13518556 107.92920235 -593.71380137 109.57506882 -582.29169244 111.21600097 C-574.62326177 112.31808404 -566.95600895 113.42794284 -559.28954089 114.54359257 C-554.52642566 115.23498537 -549.76232806 115.91940524 -544.9979248 116.60186005 C-542.7855485 116.92021492 -540.57358788 117.24147382 -538.36208153 117.56581688 C-535.34813887 118.00743533 -532.33289307 118.43872622 -529.3170929 118.8674469 C-528.438305 118.99876103 -527.55951711 119.13007517 -526.65409929 119.26536852 C-522.55156906 119.83772116 -519.01984684 120.3288543 -515 119 C-512.68950958 117.25940335 -512.68950958 117.25940335 -510.52026367 114.95849609 C-509.66554977 114.10025238 -508.81083588 113.24200867 -507.93022156 112.35775757 C-506.56290642 110.95476913 -506.56290642 110.95476913 -505.16796875 109.5234375 C-504.20874508 108.55419823 -503.24854873 107.58592072 -502.28742981 106.61856079 C-499.75825798 104.06846956 -497.2408718 101.50706444 -494.72625732 98.94262695 C-490.71606953 94.85720141 -486.68738289 90.7900023 -482.66033363 86.72121048 C-481.26587502 85.30928721 -479.87618158 83.89266272 -478.48661804 82.47592163 C-474.01773721 77.93988481 -469.50202297 73.55025568 -464.65698242 69.41612244 C-462.30986692 67.41018509 -460.0694826 65.29377788 -457.8125 63.1875 C-451.82138353 57.73878914 -445.51290184 52.79888769 -439 48 C-438.37915527 47.53867676 -437.75831055 47.07735352 -437.11865234 46.60205078 C-403.22345322 21.54760197 -364.62769751 3.86701939 -325 -10 C-324.01725098 -10.34627441 -323.03450195 -10.69254883 -322.02197266 -11.04931641 C-293.26562054 -21.05767856 -263.06233179 -28.25164197 -233 -33 C-231.27716797 -33.27384521 -231.27716797 -33.27384521 -229.51953125 -33.55322266 C-157.75695 -44.77346266 -59.11004548 -50.55576973 0 0 Z " fill="#000000" transform="translate(980,84)"/>
<path d="M0 0 C3.37656056 -0.00962532 6.75248983 -0.04069189 10.12890625 -0.07226562 C42.75707299 -0.23029505 84.75579918 2.53854607 110.8671875 24.83398438 C133.04213227 47.94695558 137.17337267 87.86283228 137.4140625 118.35351562 C137.42385635 119.38910614 137.43365021 120.42469666 137.44374084 121.4916687 C138.10002492 209.13642689 118.68802124 300.42700304 68.23828125 373.55273438 C67.71363281 374.31658447 67.18898438 375.08043457 66.6484375 375.86743164 C57.50316103 388.80354612 46.55459248 400.15639482 35.35650635 411.30001831 C34.00103874 412.65636039 32.64601169 414.01314286 31.2913816 415.37032139 C27.60604403 419.06008896 23.91457121 422.74366217 20.22197914 426.42616773 C16.22668423 430.41276706 12.23723133 434.40520549 8.24703979 438.39691162 C1.34567426 445.29932217 -5.55932245 452.19808254 -12.46685028 459.09432602 C-22.45377829 469.06494974 -32.43513146 479.04113916 -42.41516426 489.01866402 C-58.61010263 505.209233 -74.80948574 521.39534486 -91.01171875 537.57861328 C-106.74389678 553.29239827 -122.4739546 569.00830074 -138.20117188 584.72705078 C-138.68665579 585.21227164 -139.1721397 585.6974925 -139.67233525 586.19741703 C-144.54812717 591.07057172 -149.42387629 595.94376924 -154.29959406 600.81699812 C-195.13466749 641.6312186 -235.97694194 682.43822733 -276.82421875 723.24023438 C-283.68841298 717.61394878 -289.87124984 711.32971444 -296.13108826 705.05361938 C-297.38260609 703.80253797 -298.63434379 702.55167647 -299.88628155 701.30101526 C-303.31598956 697.87353838 -306.74257988 694.44295951 -310.168661 691.01185775 C-313.86750991 687.30868467 -317.56925422 683.60840785 -321.27064514 679.90777588 C-327.67989874 673.49904627 -334.08732092 667.08849034 -340.49349785 660.67668533 C-349.75572319 651.40632807 -359.02071324 642.13873798 -368.28637732 632.87181787 C-383.31974716 617.83626017 -398.35088314 602.79847132 -413.38061523 587.75927734 C-427.97937753 573.15133405 -442.57919122 558.54444288 -457.18041992 543.93896484 C-458.08065352 543.03846852 -458.98088712 542.1379722 -459.90840053 541.21018811 C-464.4246784 536.69260519 -468.94097694 532.17504294 -473.45728576 527.65749097 C-510.91613614 490.18827628 -548.37136166 452.71543967 -585.82421875 415.24023438 C-579.98177907 408.08898887 -573.40125515 401.66863857 -566.87882996 395.14767456 C-565.54500142 393.81054338 -564.21138502 392.47320057 -562.87796193 391.13566506 C-559.22108634 387.46880691 -555.56109766 383.80507005 -551.90055716 380.14187098 C-547.94967851 376.18707813 -544.00163474 372.22945683 -540.05316162 368.27226257 C-530.52090153 358.72026966 -520.98382162 349.17309605 -511.44614193 339.62651509 C-506.94970965 335.12569475 -502.45376636 330.624386 -497.95775795 326.12314224 C-483.00322666 311.15160195 -468.04744992 296.18130755 -453.08802319 281.21465874 C-452.12136971 280.24753052 -451.15471681 279.28040172 -450.18806447 278.31327236 C-449.70871915 277.83369067 -449.22937383 277.35410897 -448.73550289 276.85999449 C-446.30714198 274.43043245 -443.87878823 272.00086323 -441.45043945 269.57128906 C-440.72758397 268.84807336 -440.72758397 268.84807336 -439.99012535 268.11024723 C-424.37925777 252.4914935 -408.77617575 236.86499225 -393.17763481 221.23392848 C-376.66452524 204.6864525 -360.14407084 188.14635005 -343.61541158 171.61440289 C-334.6142369 162.61106729 -325.61635348 153.60449638 -316.62691307 144.58944321 C-308.96930495 136.91006682 -301.30482699 129.23762981 -293.63148084 121.57397775 C-289.72156007 117.66858388 -285.81486164 113.76011099 -281.91697121 109.84270668 C-278.33824011 106.24621579 -274.75013793 102.6593425 -271.1548113 99.07944407 C-269.86588228 97.7928718 -268.5802237 96.50301144 -267.29847827 95.20928238 C-207.65883428 35.04739654 -116.80414521 9.96628952 -34.82421875 1.24023438 C-33.39045898 1.08337158 -33.39045898 1.08337158 -31.92773438 0.92333984 C-21.31595541 -0.06730552 -10.64855178 0.01825466 0 0 Z " fill="#FFFFFF" transform="translate(825.82421875,116.759765625)"/>
<path d="M0 0 C1.70461459 1.48052198 3.39357309 2.97936223 5.0625 4.5 C5.76761719 5.12390625 6.47273437 5.7478125 7.19921875 6.390625 C23.09360724 21.25453251 33.14077588 43.77937079 34.0625 65.5 C34.10246094 66.32242188 34.14242187 67.14484375 34.18359375 67.9921875 C34.79512154 92.81302123 25.42918472 116.0093281 8.52880859 134.00683594 C-9.09156206 151.94992401 -31.43809901 160.68622476 -56.3125 160.9375 C-81.45711574 160.83309587 -103.22005638 151.19287018 -120.9375 133.5 C-121.75347656 132.695625 -122.56945312 131.89125 -123.41015625 131.0625 C-140.00551052 113.75550962 -146.47232275 91.3587621 -146.35913086 67.8984375 C-145.80433488 43.52403477 -135.65288973 21.99134702 -118.38623047 4.87548828 C-86.31127642 -25.57788063 -34.3948241 -27.47795865 0 0 Z " fill="#000000" transform="translate(748.9375,316.5)"/>
<path d="M0 0 C2.63943316 2.63943316 2.55122617 4.3644658 3.07571411 8.04656982 C3.26357483 9.33642792 3.45143555 10.62628601 3.64498901 11.95523071 C3.84568164 13.39298282 4.04620699 14.83075828 4.24658203 16.26855469 C4.46291335 17.77643866 4.67997183 19.28421846 4.89770508 20.79190063 C5.48792391 24.89428754 6.0676026 28.99810216 6.64522791 33.10227871 C7.25096689 37.39508284 7.8655428 41.68662205 8.47897339 45.97833252 C9.50847651 53.19047892 10.53146124 60.40352628 11.55029297 67.6171875 C12.72774357 75.95356978 13.91393433 84.28867028 15.10519516 92.62308955 C16.3731468 101.49469398 17.63469237 110.36720079 18.89436865 119.23998356 C19.25763717 121.79564156 19.62209692 124.35112731 19.98682022 126.90657806 C20.56042794 130.92787102 21.12973505 134.94975062 21.695755 138.97211838 C21.90394069 140.44690752 22.11353581 141.9214985 22.32465744 143.39587021 C22.6130783 145.41185946 22.89580055 147.42866151 23.17825317 149.44549561 C23.3378911 150.57301617 23.49752903 151.70053673 23.66200447 152.86222458 C24.55731708 161.17384312 24.55731708 161.17384312 22.46949768 164.26878929 C21.74681198 164.98594423 21.02412628 165.70309917 20.27954102 166.44198608 C19.45495392 167.27482117 18.63036682 168.10765625 17.78079224 168.96572876 C16.86441986 169.86052948 15.94804749 170.7553302 15.00390625 171.67724609 C14.03711257 172.64234682 13.07163919 173.6087717 12.10739136 174.57641602 C9.48850912 177.19701948 6.85154291 179.79871452 4.21094894 182.39741468 C1.45357219 185.11727903 -1.28681803 187.85414888 -4.02905273 190.58926392 C-9.22326521 195.7648291 -14.43258208 200.92491028 -19.64749432 206.07960856 C-25.58422383 211.94926951 -31.50392138 217.83598057 -37.42224693 223.72418857 C-49.59597366 235.8352029 -61.79092591 247.92462223 -74 260 C-76.83984548 256.50691559 -79.26029711 253.05445535 -81.51171875 249.15234375 C-81.83681931 248.59242737 -82.16191986 248.03251099 -82.49687195 247.45562744 C-83.19727166 246.24905903 -83.89599827 245.04151812 -84.59320068 243.83309937 C-86.48572204 240.55478033 -88.39292187 237.28503507 -90.30078125 234.015625 C-90.88865417 233.00782234 -90.88865417 233.00782234 -91.48840332 231.97966003 C-95.37330996 225.33458022 -99.36337657 218.75678743 -103.375 212.1875 C-109.57966327 202.02545477 -115.6892652 191.81101475 -121.75 181.5625 C-129.01548453 169.27860126 -136.41372479 157.08936146 -144 145 C-140.18797454 140.4465405 -136.24966791 136.10580553 -132.03945923 131.91920471 C-131.47080245 131.34969351 -130.90214568 130.78018231 -130.31625688 130.1934132 C-128.430159 128.30568197 -126.54053498 126.42152239 -124.65087891 124.53735352 C-123.29019035 123.17694732 -121.92972252 121.81632031 -120.56945801 120.45549011 C-116.89034787 116.77609391 -113.20816998 113.09978186 -109.52542162 109.42402768 C-105.67192186 105.57679328 -101.82126733 101.72671325 -97.9703064 97.87693787 C-90.68390461 90.59364002 -83.3949582 83.31289435 -76.10508764 76.0330686 C-67.80324859 67.74241981 -59.50426016 59.44892004 -51.20550656 51.15518296 C-34.14016797 34.10028753 -17.07126367 17.04896451 0 0 Z " fill="#FFFFFF" transform="translate(810,681)"/>
<path d="M0 0 C2.37599511 0.30798532 4.75288747 0.60911173 7.13053894 0.90403748 C9.73379334 1.2683289 12.33618814 1.63686308 14.93823242 2.00952148 C16.38511592 2.21364728 17.83204734 2.4174336 19.27902222 2.62091064 C23.16520585 3.16858672 27.05061669 3.72156108 30.93583465 4.27604175 C33.3658513 4.62257435 35.79603535 4.96790751 38.22628212 5.31282234 C46.71013595 6.51690522 55.19336849 7.72525839 63.67602539 8.93774414 C71.5794127 10.06731685 79.48409882 11.18745707 87.38943404 12.30330795 C94.19137684 13.26382671 100.99238447 14.23077966 107.79269296 15.20280129 C111.84861729 15.78243775 115.90487303 16.35944922 119.96208763 16.92999077 C123.7660056 17.46514099 127.56869914 18.00826195 131.3705864 18.55764771 C132.76742539 18.75809576 134.16468211 18.95565657 135.56236076 19.15016365 C137.46476253 19.41536242 139.3655802 19.69185278 141.26628113 19.96897888 C142.86423161 20.19655711 142.86423161 20.19655711 144.49446392 20.42873287 C147 21 147 21 149 23 C101.48 70.52 53.96 118.04 5 167 C-10.78505129 157.97997069 -10.78505129 157.97997069 -16.3828125 154.66015625 C-16.99671844 154.29623276 -17.61062439 153.93230927 -18.24313354 153.55735779 C-20.20458611 152.39379704 -22.16488424 151.22831108 -24.125 150.0625 C-24.81319824 149.65370605 -25.50139648 149.24491211 -26.21044922 148.82373047 C-36.97407116 142.42874206 -47.68836943 135.95671355 -58.37890625 129.44042969 C-70.80528436 121.87385071 -83.32602042 114.46681716 -95.8460083 107.05654907 C-100.90952275 104.05790606 -105.9591162 101.03650774 -111 98 C-106.26332703 92.33437441 -101.24213188 87.02251589 -96.07983398 81.74414062 C-95.20251114 80.84418365 -94.32518829 79.94422668 -93.42127991 79.01699829 C-85.37934507 70.77421387 -77.29303849 62.57480958 -69.19483852 54.38733673 C-63.76209736 48.89335708 -58.34349515 43.38678609 -52.95776367 37.84667969 C-48.24165466 32.99540234 -43.50132407 28.16941686 -38.7301603 23.37225103 C-36.21137905 20.83813841 -33.70594661 18.29353198 -31.22912407 15.71833801 C-28.46632456 12.84690787 -25.64938398 10.03257257 -22.82592773 7.22070312 C-21.6197731 5.94140427 -21.6197731 5.94140427 -20.38925171 4.63626099 C-13.67522055 -1.90042297 -8.92183474 -1.63284079 0 0 Z " fill="#FFFFFF" transform="translate(250,247)"/>
<path d="M0 0 C8.44145378 7.29316779 13.12284295 15.95256953 14.3671875 27.03125 C14.8594681 40.81510675 8.3072509 49.8465533 -0.69802666 59.52196312 C-6.16957409 65.32864192 -11.81067784 70.96714082 -17.44946289 76.6105957 C-18.77493156 77.94070633 -20.10020765 79.27100887 -21.42530823 80.60148621 C-24.98884125 84.17800053 -28.55558141 87.7512984 -32.12337422 91.32356286 C-34.35803156 93.56117026 -36.59210873 95.79935536 -38.82601738 98.03771019 C-45.83323118 105.05855251 -52.8424099 112.07742418 -59.85450083 119.09339553 C-67.91850662 127.1618905 -75.97591116 135.23690236 -84.02769667 143.31759197 C-90.27748337 149.58902729 -96.53305426 155.85465471 -102.79300684 162.11594266 C-106.52139283 165.84537308 -110.24734496 169.57715755 -113.9672718 173.31502724 C-117.46309435 176.82738879 -120.96608224 180.33244558 -124.47455406 183.83217049 C-125.75497442 185.11182398 -127.03286892 186.39401104 -128.30792999 187.67900467 C-139.56535194 199.01891392 -149.58137299 209.03370784 -166.3125 209.3125 C-172.95632657 209.28030398 -178.1604061 208.48752963 -183.875 204.875 C-184.885625 204.318125 -185.89625 203.76125 -186.9375 203.1875 C-194.61955924 197.13992145 -200.8824301 189.94349963 -202.10986328 179.96582031 C-202.98050731 169.61995007 -202.39269642 159.56577181 -195.51085055 151.22082913 C-193.87905297 149.41202229 -192.2137439 147.64243115 -190.52900696 145.88282776 C-189.91018971 145.22870456 -189.29137246 144.57458137 -188.65380317 143.90063626 C-182.21659225 137.12419789 -175.64175068 130.48617471 -169.03588867 123.87475586 C-167.71820938 122.55243 -166.40072063 121.22991425 -165.08340454 119.90722656 C-161.55521362 116.36610541 -158.023861 112.82815535 -154.49144149 109.29125285 C-152.27805262 107.07490769 -150.0652412 104.85798752 -147.85259438 102.64090157 C-140.90892202 95.68361923 -133.96329953 88.72829276 -127.01476306 81.77586836 C-119.02832127 73.78493063 -111.04849703 65.78746027 -103.07424945 57.78435415 C-96.87876301 51.56723283 -90.67750579 45.35590621 -84.47186071 39.14892489 C-80.77764491 35.45366443 -77.08586627 31.75604736 -73.40010643 28.052351 C-69.94035012 24.57607774 -66.47345659 21.10708261 -63.00105667 17.64344025 C-61.73311369 16.37626509 -60.4677039 15.10654901 -59.20511436 13.83403969 C-42.75786881 -2.7347762 -22.36881293 -16.14677111 0 0 Z " fill="#000000" transform="translate(282.875,790.125)"/>
<path d="M0 0 C8.44145378 7.29316779 13.12284295 15.95256953 14.3671875 27.03125 C14.8574837 40.7595437 8.35958643 49.792403 -0.61230469 59.4312439 C-6.55523537 65.73784718 -12.66963867 71.8771175 -18.78125 78.01953125 C-19.4745491 78.71690588 -20.16784821 79.41428051 -20.88215637 80.1327877 C-24.54238698 83.81368414 -28.20574543 87.49143505 -31.87158203 91.16674805 C-35.62864104 94.9349205 -39.3738543 98.7146471 -43.11664581 102.49698353 C-46.02694078 105.43352892 -48.94618802 108.36105264 -51.86784363 111.28629112 C-53.2521469 112.67542666 -54.63310698 114.06790301 -56.01045227 115.46393776 C-77.22619964 136.94993065 -77.22619964 136.94993065 -91.9909668 137.25488281 C-93.07825073 137.25246582 -93.07825073 137.25246582 -94.1875 137.25 C-94.9400708 137.24838867 -95.6926416 137.24677734 -96.46801758 137.24511719 C-102.35927748 137.11520507 -106.84493235 136.05480048 -111.875 132.875 C-112.885625 132.318125 -113.89625 131.76125 -114.9375 131.1875 C-122.61955924 125.13992145 -128.8824301 117.94349963 -130.10986328 107.96582031 C-130.97966768 97.62992741 -130.39504472 87.57977629 -123.52684975 79.23750496 C-121.91054607 77.44454421 -120.26047723 75.69113034 -118.59106445 73.94750977 C-117.66642002 72.97006349 -117.66642002 72.97006349 -116.72309589 71.97287083 C-109.93391226 64.82609931 -103.0027841 57.81990099 -96.04296875 50.83984375 C-95.37198969 50.16603731 -94.70101063 49.49223087 -94.00969887 48.79800606 C-90.4746835 45.24819214 -86.936957 41.7011088 -83.39672852 38.15649414 C-79.76799905 34.52223495 -76.14868496 30.87874355 -72.53135204 27.23314571 C-69.71641684 24.39953441 -66.89474479 21.57270434 -64.07122231 18.74765205 C-62.73361401 17.40703996 -61.39847921 16.06395472 -60.06599998 14.71824455 C-43.43389623 -2.06750816 -22.93971077 -16.55886972 0 0 Z " fill="#000000" transform="translate(390.875,898.125)"/>
<path d="M0 0 C8.44145378 7.29316779 13.12284295 15.95256953 14.3671875 27.03125 C14.85771483 40.76601521 8.35289498 49.80156476 -0.62350464 59.44467163 C-6.49828881 65.67726461 -12.55036238 71.7363642 -18.59765625 77.80078125 C-19.62292829 78.83029435 -19.62292829 78.83029435 -20.66891289 79.8806057 C-24.2763629 83.50290786 -27.88656878 87.12243487 -31.49926758 90.73950195 C-35.20310211 94.44884495 -38.89754096 98.1674022 -42.58992863 101.88813496 C-45.45979844 104.77670784 -48.33643172 107.6584738 -51.21490288 110.53847313 C-52.57959609 111.9061688 -53.94181752 113.27633594 -55.30137825 114.64913368 C-77.48356345 137.03207803 -77.48356345 137.03207803 -94.3125 137.3125 C-100.95632657 137.28030398 -106.1604061 136.48752963 -111.875 132.875 C-112.885625 132.318125 -113.89625 131.76125 -114.9375 131.1875 C-122.61955924 125.13992145 -128.8824301 117.94349963 -130.10986328 107.96582031 C-130.97966768 97.62992741 -130.39504472 87.57977629 -123.52684975 79.23750496 C-121.91054607 77.44454421 -120.26047723 75.69113034 -118.59106445 73.94750977 C-117.66642002 72.97006349 -117.66642002 72.97006349 -116.72309589 71.97287083 C-109.93391226 64.82609931 -103.0027841 57.81990099 -96.04296875 50.83984375 C-95.37198969 50.16603731 -94.70101063 49.49223087 -94.00969887 48.79800606 C-90.4746835 45.24819214 -86.936957 41.7011088 -83.39672852 38.15649414 C-79.76799905 34.52223495 -76.14868496 30.87874355 -72.53135204 27.23314571 C-69.71641684 24.39953441 -66.89474479 21.57270434 -64.07122231 18.74765205 C-62.73361401 17.40703996 -61.39847921 16.06395472 -60.06599998 14.71824455 C-43.43389623 -2.06750816 -22.93971077 -16.55886972 0 0 Z " fill="#000000" transform="translate(174.875,682.125)"/>
</svg>
