<?xml version="1.0" encoding="UTF-8" standalone="no" ?>
<!DOCTYPE svg PUBLIC "-//W3C//DTD SVG 1.1//EN" "http://www.w3.org/Graphics/SVG/1.1/DTD/svg11.dtd">
<svg xmlns="http://www.w3.org/2000/svg" xmlns:xlink="http://www.w3.org/1999/xlink" version="1.1" width="1080" height="1080" viewBox="0 0 1080 1080" xml:space="preserve">
<desc>Created with Fabric.js 5.2.4</desc>
<defs>
</defs>
<g transform="matrix(1 0 0 1 540 540)" id="e5d86936-0859-4745-92ca-84740e4656b8"  >
<rect style="stroke: none; stroke-width: 1; stroke-dasharray: none; stroke-linecap: butt; stroke-dashoffset: 0; stroke-linejoin: miter; stroke-miterlimit: 4; fill: rgb(255,255,255); fill-rule: nonzero; opacity: 1; visibility: hidden;" vector-effect="non-scaling-stroke"  x="-540" y="-540" rx="0" ry="0" width="1080" height="1080" />
</g>
<g transform="matrix(1 0 0 1 540 540)" id="7cbb5c6f-40eb-4426-90aa-8d234adf2a1f"  >
</g>
<g transform="matrix(72 0 0 72 540 540)"  >
<path style="stroke: none; stroke-width: 1; stroke-dasharray: none; stroke-linecap: butt; stroke-dashoffset: 0; stroke-linejoin: miter; stroke-miterlimit: 4; fill: rgb(0,0,0); fill-rule: evenodd; opacity: 1;"  transform=" translate(-7.38, -7.62)" d="M 6.85357 3.85355 L 7.65355 3.05353 C 8.2981 2.40901 9.42858 1.96172 10.552 1.80125 C 11.1056 1.72217 11.6291 1.71725 12.0564 1.78124 C 12.4987 1.84748 12.7698 1.97696 12.8965 2.10357 C 13.0231 2.23018 13.1526 2.50125 13.2188 2.94357 C 13.2828 3.37086 13.2779 3.89439 13.1988 4.44801 C 13.0383 5.57139 12.591 6.70188 11.9464 7.34645 L 7.49999 11.7929 L 6.35354 10.6465 C 6.15827 10.4512 5.84169 10.4512 5.64643 10.6465 C 5.45117 10.8417 5.45117 11.1583 5.64643 11.3536 L 7.14644 12.8536 C 7.34171 13.0488 7.65829 13.0488 7.85355 12.8536 L 8.40073 12.3064 L 9.57124 14.2572 C 9.65046 14.3893 9.78608 14.4774 9.9389 14.4963 C 10.0917 14.5151 10.2447 14.4624 10.3535 14.3536 L 12.3535 12.3536 C 12.4648 12.2423 12.5172 12.0851 12.495 11.9293 L 12.0303 8.67679 L 12.6536 8.05355 C 13.509 7.19808 14.0117 5.82855 14.1887 4.58943 C 14.2784 3.9618 14.2891 3.33847 14.2078 2.79546 C 14.1287 2.26748 13.9519 1.74482 13.6035 1.39645 C 13.2552 1.04809 12.7325 0.871332 12.2045 0.792264 C 11.6615 0.710945 11.0382 0.721644 10.4105 0.8113 C 9.17143 0.988306 7.80189 1.491 6.94644 2.34642 L 6.32322 2.96968 L 3.07071 2.50504 C 2.91492 2.48278 2.75773 2.53517 2.64645 2.64646 L 0.646451 4.64645 C 0.537579 4.75533 0.484938 4.90829 0.50375 5.0611 C 0.522563 5.21391 0.61073 5.34954 0.742757 5.42876 L 2.69364 6.59928 L 2.14646 7.14645 C 2.0527 7.24022 2.00002 7.3674 2.00002 7.50001 C 2.00002 7.63261 2.0527 7.75979 2.14646 7.85356 L 3.64647 9.35356 C 3.84173 9.54883 4.15831 9.54883 4.35357 9.35356 C 4.54884 9.1583 4.54884 8.84172 4.35357 8.64646 L 3.20712 7.50001 L 3.85357 6.85356 L 6.85357 3.85355 Z M 10.0993 13.1936 L 9.12959 11.5775 L 11.1464 9.56067 L 11.4697 11.8232 L 10.0993 13.1936 Z M 3.42251 5.87041 L 5.43935 3.85356 L 3.17678 3.53034 L 1.80638 4.90074 L 3.42251 5.87041 Z M 2.35356 10.3535 C 2.54882 10.1583 2.54882 9.8417 2.35356 9.64644 C 2.1583 9.45118 1.84171 9.45118 1.64645 9.64644 L 0.646451 10.6464 C 0.451188 10.8417 0.451188 11.1583 0.646451 11.3535 C 0.841713 11.5488 1.1583 11.5488 1.35356 11.3535 L 2.35356 10.3535 Z M 3.85358 11.8536 C 4.04884 11.6583 4.04885 11.3417 3.85359 11.1465 C 3.65833 10.9512 3.34175 10.9512 3.14648 11.1465 L 1.14645 13.1464 C 0.95119 13.3417 0.951187 13.6583 1.14645 13.8535 C 1.34171 14.0488 1.65829 14.0488 1.85355 13.8536 L 3.85358 11.8536 Z M 5.35356 13.3535 C 5.54882 13.1583 5.54882 12.8417 5.35356 12.6464 C 5.1583 12.4512 4.84171 12.4512 4.64645 12.6464 L 3.64645 13.6464 C 3.45119 13.8417 3.45119 14.1583 3.64645 14.3535 C 3.84171 14.5488 4.1583 14.5488 4.35356 14.3535 L 5.35356 13.3535 Z M 9.49997 6.74881 C 10.1897 6.74881 10.7488 6.1897 10.7488 5.5 C 10.7488 4.8103 10.1897 4.25118 9.49997 4.25118 C 8.81026 4.25118 8.25115 4.8103 8.25115 5.5 C 8.25115 6.1897 8.81026 6.74881 9.49997 6.74881 Z" stroke-linecap="round" />
</g>
</svg>
